# xmcd
#
# Track frame offsets:
#	150
#	3416
#	23789
#	47865
#	64608
#	81639
#	109854
#	129772
#	135838
#	141776
#	158829
#	177649
#	203507
#	223922
#
# Disc length: 3280 seconds
#
# Revision: 1
# Processed by: cddbd v1.5.1PL2 Copyright (c) Steve Scherf et al.
# Submitted via: EasyCDDAExtractor 8.0.2.1
#
DISCID=c10cce0e
DTITLE=Dio - The Palladium Worcester 08-12-00 Disc 1
DYEAR=2000
DGENRE=Hard Rock
TTITLE0=Intro
TTITLE1=Sunset Superman
TTITLE2=Invisible
TTITLE3=Drum Solo
TTITLE4=Stand Up And Shout
TTITLE5=Don't Talk To Strangers
TTITLE6=All The Fools Sailed Away
TTITLE7=Discovery 
TTITLE8=Magica
TTITLE9=The Lord Of The Last Day
TTITLE10=Fever Dreams
TTITLE11=Feed My Head
TTITLE12=Eriel
TTITLE13=Guitar Solo
EXTD=
EXTT0=
EXTT1=
EXTT2=
EXTT3=
EXTT4=
EXTT5=
EXTT6=
EXTT7=
EXTT8=
EXTT9=
EXTT10=
EXTT11=
EXTT12=
EXTT13=
PLAYORDER=
